<svg xmlns="http://www.w3.org/2000/svg" xmlns:xlink="http://www.w3.org/1999/xlink" width="500" zoomAndPan="magnify" viewBox="0 0 375 374.999991" height="500" preserveAspectRatio="xMidYMid meet" version="1.0"><defs><filter x="0%" y="0%" width="100%" height="100%" id="9ad24bc173"><feColorMatrix values="0 0 0 0 1 0 0 0 0 1 0 0 0 0 1 0 0 0 1 0" color-interpolation-filters="sRGB"/></filter><mask id="48a22c3289"><g filter="url(#9ad24bc173)"><rect x="-37.5" width="450" fill="#000000" y="-37.499999" height="449.999989" fill-opacity="0.7"/></g></mask><clipPath id="d95ffcd048"><path d="M 0.28125 1 L 333 1 L 333 367 L 0.28125 367 Z M 0.28125 1 " clip-rule="nonzero"/></clipPath><clipPath id="824702bbbc"><rect x="0" width="365" y="0" height="368"/></clipPath></defs><g mask="url(#48a22c3289)"><g transform="matrix(1, 0, 0, 1, 5, 3)"><g clip-path="url(#824702bbbc)"><path fill="#ded3f5" d="M 213.273438 28.144531 L 210.566406 28.269531 C 191.03125 28.136719 164.601562 33.441406 131.28125 44.1875 C 103.871094 53.96875 84.003906 63.902344 71.671875 73.996094 C 59.777344 83.628906 52.660156 90.371094 50.324219 94.21875 C 45.949219 99.785156 42.171875 105.78125 38.992188 112.203125 C 29.851562 131.96875 24.316406 153.308594 22.390625 176.230469 C 19.1875 205.378906 19.164062 232.648438 22.320312 258.039062 C 26.902344 280.742188 32.519531 295.179688 39.175781 301.34375 C 43.496094 309.164062 56.917969 316.722656 79.4375 324.023438 L 147.257812 339.921875 C 161.339844 342.378906 172.117188 343.320312 179.597656 342.753906 C 209.011719 341.433594 242.242188 327.730469 279.292969 301.644531 L 329.097656 265.546875 C 339.886719 256.875 345.996094 251.449219 347.425781 249.273438 C 355.589844 239.074219 359.8125 232.601562 360.097656 229.855469 C 362.125 224.59375 363.257812 219.953125 363.496094 215.9375 C 365.125 204.882812 360.691406 189.886719 350.195312 170.960938 C 330.820312 139.445312 309.828125 109.632812 287.21875 81.527344 C 269.628906 59.082031 257.183594 45.601562 249.882812 41.085938 C 239.058594 32.785156 226.855469 28.472656 213.273438 28.144531 " fill-opacity="1" fill-rule="nonzero"/><g clip-path="url(#d95ffcd048)"><path fill="#d3e8f2" d="M 243.167969 29.863281 C 243.105469 29.804688 225.882812 12.914062 215.082031 8.636719 C 214.226562 8.300781 213.367188 7.976562 212.492188 7.671875 C 193.582031 1.042969 169.910156 1.726562 153.109375 11.992188 C 141.289062 19.214844 134.730469 33.375 128.996094 46.457031 C 126.339844 52.523438 123.882812 58.746094 121.417969 64.996094 C 118.949219 71.261719 116.46875 77.554688 113.765625 83.722656 C 108.960938 94.691406 103.441406 105.292969 96.003906 114.691406 C 85.054688 128.519531 69.707031 138.253906 54.59375 147.851562 C 39.535156 157.414062 24.714844 166.835938 14.25 180.054688 C 12.457031 182.320312 10.789062 184.699219 9.273438 187.207031 C -2.570312 206.8125 3.59375 233.949219 9.703125 256.648438 C 20.066406 295.132812 41.554688 338.8125 77.9375 353.941406 C 79.597656 354.632812 81.277344 355.273438 82.976562 355.871094 C 98.679688 361.375 115.796875 362.960938 132.570312 364.035156 C 164.605469 366.085938 196.957031 364.488281 228.84375 360.558594 C 250.175781 357.925781 271.53125 354.363281 291.960938 347.898438 C 307.015625 343.136719 324.949219 334.851562 329.035156 320.296875 C 333.074219 305.925781 327.488281 289.90625 322.050781 275.523438 C 318.328125 265.671875 313.992188 256.070312 309.640625 246.429688 C 305.988281 238.335938 302.320312 230.207031 299.015625 221.933594 C 289.4375 197.933594 284.445312 172.433594 279.480469 147.09375 C 277.730469 138.160156 275.988281 129.253906 274.042969 120.414062 C 269.644531 100.40625 265.039062 80.40625 258.28125 61.140625 C 254.433594 50.171875 243.011719 29.664062 242.992188 29.636719 L 243.167969 29.863281 M 244.566406 28.4375 C 244.632812 28.503906 244.691406 28.582031 244.738281 28.664062 C 244.722656 28.636719 256.25 49.3125 260.167969 60.480469 C 266.96875 79.871094 271.597656 99.980469 275.996094 119.984375 C 277.945312 128.851562 279.691406 137.78125 281.441406 146.707031 C 286.414062 172.082031 291.375 197.394531 300.871094 221.191406 C 304.15625 229.417969 307.804688 237.503906 311.460938 245.609375 C 315.8125 255.242188 320.167969 264.894531 323.917969 274.820312 C 329.308594 289.082031 335.203125 305.730469 330.960938 320.835938 C 326.546875 336.550781 307.488281 345.085938 292.566406 349.804688 C 271.960938 356.324219 250.46875 359.902344 229.085938 362.539062 C 197.105469 366.484375 164.625 368.089844 132.441406 366.027344 C 115.667969 364.953125 98.304688 363.359375 82.316406 357.753906 C 80.582031 357.148438 78.871094 356.496094 77.167969 355.785156 C 39.859375 340.273438 18.160156 295.746094 7.773438 257.167969 C 1.714844 234.664062 -4.796875 206.632812 7.566406 186.171875 C 9.125 183.589844 10.839844 181.140625 12.683594 178.8125 C 23.394531 165.285156 38.523438 155.691406 53.523438 146.164062 C 68.691406 136.53125 83.734375 126.96875 94.4375 113.449219 C 101.726562 104.246094 107.160156 93.816406 111.9375 82.921875 C 114.621094 76.792969 117.085938 70.535156 119.5625 64.265625 C 122.023438 58.019531 124.492188 51.761719 127.167969 45.652344 C 132.847656 32.6875 139.621094 17.890625 152.066406 10.289062 C 169.488281 -0.359375 193.8125 -0.996094 213.152344 5.785156 C 214.050781 6.101562 214.9375 6.429688 215.816406 6.777344 C 227.082031 11.238281 244.625 28.496094 244.566406 28.4375 Z M 244.566406 28.4375 " fill-opacity="0.961" fill-rule="nonzero"/></g></g></g></g></svg>