<svg xmlns="http://www.w3.org/2000/svg" xmlns:xlink="http://www.w3.org/1999/xlink" width="1280" zoomAndPan="magnify" viewBox="0 0 960 599.999999" height="800" preserveAspectRatio="xMidYMid meet" version="1.0"><defs><filter x="0%" y="0%" width="100%" height="100%" id="cbd277ce6e"><feColorMatrix values="0 0 0 0 1 0 0 0 0 1 0 0 0 0 1 0 0 0 1 0" color-interpolation-filters="sRGB"/></filter><g/><mask id="20f34e26d9"><g filter="url(#cbd277ce6e)"><rect x="-96" width="1152" fill="#000000" y="-60" height="719.999999" fill-opacity="0.1"/></g></mask><clipPath id="0123f28ba2"><rect x="0" width="960" y="0" height="600"/></clipPath><clipPath id="c758180cfe"><path d="M 60 28.523438 L 75.921875 28.523438 L 75.921875 30.84375 L 60 30.84375 Z M 60 28.523438 " clip-rule="nonzero"/></clipPath><clipPath id="5f02e7be13"><path d="M 60 33.714844 L 75.921875 33.714844 L 75.921875 36.035156 L 60 36.035156 Z M 60 33.714844 " clip-rule="nonzero"/></clipPath><clipPath id="39cf401efe"><path d="M 60 38.953125 L 75.921875 38.953125 L 75.921875 41.273438 L 60 41.273438 Z M 60 38.953125 " clip-rule="nonzero"/></clipPath><mask id="043d01c1b2"><g filter="url(#cbd277ce6e)"><rect x="-96" width="1152" fill="#000000" y="-60" height="719.999999" fill-opacity="0.2"/></g></mask><clipPath id="dbf3640045"><path d="M 0.921875 0.453125 L 4.671875 0.453125 L 4.671875 130.914062 L 0.921875 130.914062 Z M 0.921875 0.453125 " clip-rule="nonzero"/></clipPath><clipPath id="9f13c67c11"><rect x="0" width="5" y="0" height="132"/></clipPath></defs><g mask="url(#20f34e26d9)"><g transform="matrix(1, 0, 0, 1, 0, -0.000000000000034788)"><g clip-path="url(#0123f28ba2)"><g fill="#353330" fill-opacity="1"><g transform="translate(-15.969314, 455.363238)"><g><path d="M 24.640625 -57.984375 L 24.640625 -136.25 L 172.96875 -347.890625 L 276.859375 -347.890625 L 276.859375 -140.125 L 314.0625 -140.125 L 314.0625 -57.984375 L 276.859375 -57.984375 L 276.859375 0 L 181.1875 0 L 181.1875 -57.984375 Z M 188.4375 -241.109375 L 121.765625 -140.125 L 188.4375 -140.125 Z M 188.4375 -241.109375 "/></g></g></g><g fill="#353330" fill-opacity="1"><g transform="translate(317.840628, 455.363238)"><g><path d="M 18.84375 -181.671875 C 18.84375 -237.078125 30.113281 -280.722656 52.65625 -312.609375 C 75.207031 -344.503906 110.644531 -360.453125 158.96875 -360.453125 C 207.28125 -360.453125 242.789062 -344.503906 265.5 -312.609375 C 288.207031 -280.722656 299.5625 -237.078125 299.5625 -181.671875 C 299.5625 -125.617188 288.285156 -81.648438 265.734375 -49.765625 C 243.191406 -17.878906 207.601562 -1.9375 158.96875 -1.9375 C 110.320312 -1.9375 74.804688 -17.878906 52.421875 -49.765625 C 30.035156 -81.648438 18.84375 -125.617188 18.84375 -181.671875 Z M 205.828125 -181.671875 C 205.828125 -210.660156 202.765625 -232.804688 196.640625 -248.109375 C 190.523438 -263.410156 177.96875 -271.0625 158.96875 -271.0625 C 139.957031 -271.0625 127.390625 -263.410156 121.265625 -248.109375 C 115.148438 -232.804688 112.09375 -210.660156 112.09375 -181.671875 C 112.09375 -152.035156 115.070312 -129.566406 121.03125 -114.265625 C 126.988281 -98.960938 139.632812 -91.3125 158.96875 -91.3125 C 178.289062 -91.3125 190.929688 -98.960938 196.890625 -114.265625 C 202.847656 -129.566406 205.828125 -152.035156 205.828125 -181.671875 Z M 205.828125 -181.671875 "/></g></g></g><g fill="#353330" fill-opacity="1"><g transform="translate(635.225885, 455.363238)"><g><path d="M 24.640625 -57.984375 L 24.640625 -136.25 L 172.96875 -347.890625 L 276.859375 -347.890625 L 276.859375 -140.125 L 314.0625 -140.125 L 314.0625 -57.984375 L 276.859375 -57.984375 L 276.859375 0 L 181.1875 0 L 181.1875 -57.984375 Z M 188.4375 -241.109375 L 121.765625 -140.125 L 188.4375 -140.125 Z M 188.4375 -241.109375 "/></g></g></g></g></g></g><g clip-path="url(#c758180cfe)"><path fill="#ffffff" d="M 60 28.523438 L 75.921875 28.523438 L 75.921875 30.84375 L 60 30.84375 Z M 60 28.523438 " fill-opacity="1" fill-rule="nonzero"/></g><g clip-path="url(#5f02e7be13)"><path fill="#ffffff" d="M 60 33.714844 L 75.921875 33.714844 L 75.921875 36.035156 L 60 36.035156 Z M 60 33.714844 " fill-opacity="1" fill-rule="nonzero"/></g><g clip-path="url(#39cf401efe)"><path fill="#ffffff" d="M 60 38.953125 L 75.921875 38.953125 L 75.921875 41.273438 L 60 41.273438 Z M 60 38.953125 " fill-opacity="1" fill-rule="nonzero"/></g><g mask="url(#043d01c1b2)"><g transform="matrix(1, 0, 0, 1, 75, 329)"><g clip-path="url(#9f13c67c11)"><g clip-path="url(#dbf3640045)"><path fill="#ffffff" d="M 0.921875 0.453125 L 4.671875 0.453125 L 4.671875 130.910156 L 0.921875 130.910156 Z M 0.921875 0.453125 " fill-opacity="1" fill-rule="nonzero"/></g></g></g></g></svg>