<svg xmlns="http://www.w3.org/2000/svg" xmlns:xlink="http://www.w3.org/1999/xlink" width="1280" zoomAndPan="magnify" viewBox="0 0 960 599.999999" height="800" preserveAspectRatio="xMidYMid meet" version="1.0"><defs><filter x="0%" y="0%" width="100%" height="100%" id="828df40d66"><feColorMatrix values="0 0 0 0 1 0 0 0 0 1 0 0 0 0 1 0 0 0 1 0" color-interpolation-filters="sRGB"/></filter><mask id="6c602d92e4"><g filter="url(#828df40d66)"><rect x="-96" width="1152" fill="#000000" y="-60" height="719.999999" fill-opacity="0.53"/></g></mask><clipPath id="97f6febdce"><path d="M 0 0.28125 L 960 0.28125 L 960 313 L 0 313 Z M 0 0.28125 " clip-rule="nonzero"/></clipPath><clipPath id="89e265a910"><rect x="0" width="960" y="0" height="313"/></clipPath></defs><g mask="url(#6c602d92e4)"><g transform="matrix(1, 0, 0, 1, 0, 287)"><g clip-path="url(#89e265a910)"><g clip-path="url(#97f6febdce)"><path fill="#d3e8f2" d="M 666.46875 127.105469 C 590.898438 150.660156 514.347656 153.605469 435.835938 140.847656 C 331.804688 123.179688 250.347656 63.316406 157.113281 23.078125 C 104.410156 1.179688 45.035156 -5.925781 -10.710938 6.097656 L -10.710938 394.054688 L 970.710938 394.054688 L 970.710938 59.183594 C 946.863281 60.28125 923.003906 62.046875 899.066406 64.296875 C 817.609375 71.164062 744 102.570312 666.46875 127.105469 Z M 666.46875 127.105469 " fill-opacity="1" fill-rule="nonzero"/></g></g></g></g></svg>