<svg xmlns="http://www.w3.org/2000/svg" xmlns:xlink="http://www.w3.org/1999/xlink" width="500" zoomAndPan="magnify" viewBox="0 0 375 374.999991" height="500" preserveAspectRatio="xMidYMid meet" version="1.0"><defs><g/></defs><path stroke-linecap="butt" transform="matrix(1.153847, 0, 0, 1.153847, 55.898811, -105.968343)" fill="none" stroke-linejoin="miter" d="M 197.501286 124.261232 C 195.707017 126.559927 193.509884 128.804456 190.913273 131.001589 C 188.71614 132.897421 185.997653 134.894814 182.754427 136.990385 C 179.507816 139.085956 175.739851 140.981787 171.447148 142.681264 C 172.845323 140.88361 172.970584 138.960695 171.822929 136.915906 C 170.675274 134.867731 168.153141 132.995598 164.259916 131.299506 C 160.366691 129.603414 155.102374 128.205238 148.463579 127.108364 C 141.824784 126.008105 133.713334 125.459668 124.132615 125.459668 C 118.539913 125.459668 112.52742 126.035188 106.088364 127.182843 C 99.649308 128.330498 93.284732 130.300809 86.99802 133.09716 C 80.707923 135.890126 74.644648 139.610695 68.80481 144.252096 C 62.964973 148.893497 57.798833 154.682553 53.30639 161.62265 C 48.813946 168.559361 45.245721 176.796071 42.598328 186.329394 C 39.954321 195.862717 38.630624 206.86531 38.630624 219.343942 C 38.630624 231.822574 40.15406 242.804854 43.197546 252.287396 C 46.244418 261.769938 50.286601 269.932169 55.327481 276.767318 C 60.368361 283.605852 66.133719 289.296731 72.623556 293.839956 C 79.110008 298.379794 85.748803 302.025884 92.536556 304.768069 C 99.324309 307.513639 105.986802 309.436553 112.52742 310.533427 C 119.064652 311.633686 124.978969 312.182123 130.270369 312.182123 C 136.360727 312.080561 142.69822 311.633686 149.286234 310.834729 C 154.977113 310.133948 161.240127 309.111554 168.078662 307.764159 C 174.917196 306.416765 181.63047 304.446455 188.218484 301.849843 C 178.536203 309.636293 169.551316 315.574307 161.267211 319.667272 C 152.97972 323.760236 145.694311 326.807108 139.404214 328.801116 C 132.118805 331.096426 125.429229 332.396424 119.338871 332.694341 C 104.564928 332.694341 90.640724 330.524291 77.562874 326.180806 C 64.485023 321.840707 53.032171 315.550609 43.197546 307.313899 C 33.366307 299.080575 25.603555 288.971732 19.916061 276.99414 C 14.225182 265.013164 11.381435 251.386876 11.381435 236.115278 C 11.381435 226.632736 12.278569 217.823892 14.076223 209.685359 C 15.870492 201.550211 18.243667 194.088761 21.188976 187.301008 C 24.1309 180.513255 27.45199 174.399199 31.145476 168.95884 C 34.838962 163.518481 38.606926 158.728122 42.44937 154.584376 C 46.291814 150.440631 50.036081 146.973968 53.678785 144.177617 C 57.324875 141.381266 60.493621 139.234914 63.18841 137.738561 C 65.785022 136.242209 69.102727 134.542731 73.14491 132.6469 C 77.190478 130.751069 81.63214 128.828154 86.473281 126.881542 C 91.314422 124.934929 96.429781 123.0154 101.819358 121.116183 C 107.212321 119.220352 112.700076 117.52426 118.292778 116.027907 C 123.882095 114.528169 129.346151 113.333119 134.688333 112.432599 C 140.027129 111.535464 145.095093 111.085204 149.885452 111.085204 C 160.56643 111.085204 169.202619 111.586246 175.790633 112.581557 C 182.378646 113.580254 187.395828 114.802388 190.838794 116.251345 C 194.281759 117.700301 196.42811 119.169571 197.277849 120.669309 C 198.127588 122.165661 198.202067 123.364097 197.501286 124.261232 Z M 197.501286 124.261232 " stroke="#ffffff" stroke-width="23.000025" stroke-opacity="1" stroke-miterlimit="4"/><g fill="#000000" fill-opacity="1"><g transform="translate(55.898811, 274.801298)"><g><path d="M 227.890625 -237.390625 C 225.816406 -234.742188 223.28125 -232.15625 220.28125 -229.625 C 217.75 -227.425781 214.609375 -225.117188 210.859375 -222.703125 C 207.117188 -220.285156 202.773438 -218.097656 197.828125 -216.140625 C 199.441406 -218.210938 199.582031 -220.425781 198.25 -222.78125 C 196.925781 -225.144531 194.019531 -227.304688 189.53125 -229.265625 C 185.039062 -231.222656 178.960938 -232.835938 171.296875 -234.109375 C 163.640625 -235.378906 154.285156 -236.015625 143.234375 -236.015625 C 136.785156 -236.015625 129.84375 -235.347656 122.40625 -234.015625 C 114.976562 -232.691406 107.632812 -230.414062 100.375 -227.1875 C 93.125 -223.96875 86.128906 -219.679688 79.390625 -214.328125 C 72.648438 -208.972656 66.6875 -202.289062 61.5 -194.28125 C 56.320312 -186.28125 52.207031 -176.78125 49.15625 -165.78125 C 46.101562 -154.78125 44.578125 -142.082031 44.578125 -127.6875 C 44.578125 -113.28125 46.332031 -100.601562 49.84375 -89.65625 C 53.351562 -78.71875 58.015625 -69.304688 63.828125 -61.421875 C 69.648438 -53.535156 76.304688 -46.96875 83.796875 -41.71875 C 91.285156 -36.476562 98.945312 -32.273438 106.78125 -29.109375 C 114.613281 -25.941406 122.300781 -23.722656 129.84375 -22.453125 C 137.382812 -21.191406 144.207031 -20.5625 150.3125 -20.5625 C 157.34375 -20.675781 164.65625 -21.191406 172.25 -22.109375 C 178.820312 -22.921875 186.050781 -24.101562 193.9375 -25.65625 C 201.832031 -27.207031 209.578125 -29.484375 217.171875 -32.484375 C 206.003906 -23.492188 195.640625 -16.640625 186.078125 -11.921875 C 176.515625 -7.203125 168.109375 -3.6875 160.859375 -1.375 C 152.441406 1.269531 144.722656 2.765625 137.703125 3.109375 C 120.648438 3.109375 104.578125 0.601562 89.484375 -4.40625 C 74.398438 -9.414062 61.1875 -16.671875 49.84375 -26.171875 C 38.5 -35.671875 29.539062 -47.332031 22.96875 -61.15625 C 16.40625 -74.976562 13.125 -90.703125 13.125 -108.328125 C 13.125 -119.273438 14.160156 -129.441406 16.234375 -138.828125 C 18.304688 -148.210938 21.039062 -156.820312 24.4375 -164.65625 C 27.84375 -172.488281 31.675781 -179.539062 35.9375 -185.8125 C 40.195312 -192.09375 44.546875 -197.625 48.984375 -202.40625 C 53.421875 -207.1875 57.738281 -211.1875 61.9375 -214.40625 C 66.144531 -217.632812 69.800781 -220.113281 72.90625 -221.84375 C 75.90625 -223.570312 79.734375 -225.53125 84.390625 -227.71875 C 89.054688 -229.90625 94.179688 -232.117188 99.765625 -234.359375 C 105.359375 -236.609375 111.265625 -238.828125 117.484375 -241.015625 C 123.703125 -243.203125 130.035156 -245.160156 136.484375 -246.890625 C 142.941406 -248.617188 149.25 -250 155.40625 -251.03125 C 161.570312 -252.070312 167.421875 -252.59375 172.953125 -252.59375 C 185.273438 -252.59375 195.234375 -252.015625 202.828125 -250.859375 C 210.429688 -249.710938 216.21875 -248.300781 220.1875 -246.625 C 224.164062 -244.957031 226.644531 -243.257812 227.625 -241.53125 C 228.601562 -239.8125 228.691406 -238.429688 227.890625 -237.390625 Z M 227.890625 -237.390625 "/></g></g></g><path stroke-linecap="butt" transform="matrix(0.92527, 0, 0, 0.92527, 133.313403, 36.001331)" fill="none" stroke-linejoin="miter" d="M 175.931529 257.676587 C 175.931529 267.158612 174.010638 275.521875 170.164634 282.757935 C 166.322852 289.993995 161.332757 296.284385 155.19435 301.624884 C 149.05172 306.965383 142.140734 311.457313 134.452949 315.100673 C 126.769385 318.744033 119.081599 321.665476 111.393814 323.86078 C 103.71025 326.056084 96.372868 327.630792 89.38167 328.576462 C 82.394693 329.526353 76.556028 329.999188 71.865677 329.999188 L 30.838823 329.999188 C 32.333319 329.902088 33.680053 329.450362 34.879027 328.652453 C 36.078001 327.854545 37.124992 326.782223 38.024222 325.431267 C 38.923452 324.084532 39.69603 322.590037 40.346178 320.939337 C 40.992104 319.292859 41.56626 317.57039 42.068647 315.776151 C 43.166299 311.782386 43.812225 307.138474 44.014869 301.848636 C 44.314612 295.359824 44.711456 284.830809 45.209621 270.253146 C 45.412264 264.064077 45.661347 256.680257 45.96109 248.093241 C 46.260834 239.510447 46.585907 229.526035 46.93209 218.14845 C 47.282494 206.766644 47.70889 193.839681 48.207055 179.36334 C 48.70522 164.89122 49.254046 148.671302 49.853533 130.699361 C 46.159512 130.902005 41.941995 131.049765 37.200983 131.151087 C 32.459971 131.248187 27.144802 131.201748 21.255477 130.999105 L 49.254046 115.277351 C 52.648324 115.577094 56.241023 115.826177 60.036366 116.02882 C 63.827487 116.227242 67.572169 116.324342 71.26619 116.324342 C 74.960211 116.324342 78.451589 116.303233 81.748767 116.252572 C 85.041723 116.201911 87.937835 116.075259 90.432882 115.876838 C 93.324773 115.678416 96.022464 115.475772 98.517512 115.277351 C 105.804232 115.277351 113.217605 115.876838 120.753408 117.075811 C 128.289211 118.274785 135.103097 120.495419 141.190843 123.737715 C 147.282812 126.984231 152.272907 131.501491 156.165349 137.289495 C 160.057792 143.077498 162.004014 150.566862 162.004014 159.749143 C 161.505848 166.73612 159.559627 173.326254 156.165349 179.515322 C 154.670854 182.208791 152.821733 184.931813 150.626429 187.675943 C 148.431125 190.420073 145.708103 193.041772 142.465808 195.53682 C 139.219291 198.031867 135.40284 200.328493 131.012232 202.426697 C 126.617402 204.520679 121.525986 206.268479 115.737982 207.665874 C 117.435121 207.467452 119.056269 207.31547 120.605647 207.214148 C 122.150803 207.117048 123.72129 207.066387 125.321329 207.066387 C 131.607497 207.066387 137.17597 207.788304 142.014082 209.236361 C 146.856416 210.684417 151.048602 212.605308 154.594863 215.003255 C 158.136901 217.396981 161.134336 220.120002 163.578722 223.163876 C 166.023109 226.207749 168.045321 229.276953 169.641138 232.371487 C 173.335159 239.856629 175.433363 248.295884 175.931529 257.676587 Z M 70.666703 293.16452 C 70.265638 296.457476 69.51839 299.602671 68.420738 302.600105 C 67.521508 305.192253 66.301426 307.737961 64.752048 310.233008 C 63.206892 312.732278 61.184679 314.526516 58.689631 315.624168 C 68.669821 316.523399 77.206176 317.148216 84.294475 317.49862 C 91.378552 317.844803 97.170777 318.022116 101.662707 318.022116 C 103.959332 318.022116 105.981545 317.996785 107.725123 317.946125 C 109.472923 317.895464 110.895649 317.819472 111.9933 317.722372 C 113.293596 317.621051 114.340587 317.523951 115.138496 317.422629 C 118.23303 317.021564 121.525986 315.674829 125.021585 313.378204 C 128.512963 311.081578 131.810141 308.012374 134.904675 304.170592 C 137.999209 300.32881 140.667348 295.862211 142.913313 290.770794 C 145.159277 285.679378 146.632664 280.039135 147.333473 273.850067 C 148.228481 265.562794 147.806307 258.128313 146.058508 251.538179 C 144.310708 244.948046 141.241504 239.358464 136.850896 234.769435 C 132.456067 230.176183 126.744054 226.655253 119.706417 224.210867 C 112.668779 221.76648 104.305515 220.542176 94.625069 220.542176 C 92.92793 220.542176 91.129469 220.592837 89.233909 220.694159 C 87.338348 220.791259 85.442788 220.943241 83.543005 221.141663 C 90.031817 218.047129 96.220886 215.100355 102.110211 212.305564 C 107.999536 209.510774 113.166944 206.141826 117.608213 202.198723 C 122.049481 198.255619 125.570411 193.392176 128.16678 187.599951 C 130.758928 181.811948 132.059223 174.373245 132.059223 165.288064 C 132.059223 160.099547 131.159993 155.607618 129.361532 151.812275 C 127.567293 148.021154 125.169346 144.825298 122.176134 142.228929 C 119.182921 139.636781 115.763313 137.538577 111.917309 135.94276 C 108.075527 134.342721 104.081763 133.097309 99.940237 132.198078 C 95.798712 131.298848 91.678295 130.699361 87.587431 130.399618 C 83.492345 130.104096 79.701223 129.901453 76.205624 129.804353 C 75.808781 148.071815 75.433046 164.393055 75.082642 178.768075 C 74.736459 193.143094 74.386055 205.867413 74.035651 216.949477 C 73.685246 228.03154 73.385503 237.589556 73.13642 245.623524 C 72.887338 253.657492 72.612925 260.522039 72.313181 266.212942 C 71.713694 279.490309 71.164868 288.474169 70.666703 293.16452 Z M 70.666703 293.16452 " stroke="#ffffff" stroke-width="23.000025" stroke-opacity="1" stroke-miterlimit="4"/><g fill="#000000" fill-opacity="1"><g transform="translate(145.081687, 341.340595)"><g><path d="M 151.015625 -66.921875 C 151.015625 -58.140625 149.234375 -50.398438 145.671875 -43.703125 C 142.117188 -37.015625 137.503906 -31.195312 131.828125 -26.25 C 126.148438 -21.3125 119.753906 -17.15625 112.640625 -13.78125 C 105.523438 -10.414062 98.410156 -7.710938 91.296875 -5.671875 C 84.191406 -3.640625 77.40625 -2.1875 70.9375 -1.3125 C 64.46875 -0.4375 59.066406 0 54.734375 0 L 16.765625 0 C 18.148438 -0.09375 19.394531 -0.507812 20.5 -1.25 C 21.613281 -1.988281 22.582031 -2.976562 23.40625 -4.21875 C 24.238281 -5.46875 24.957031 -6.851562 25.5625 -8.375 C 26.164062 -9.90625 26.695312 -11.5 27.15625 -13.15625 C 28.175781 -16.851562 28.773438 -21.148438 28.953125 -26.046875 C 29.234375 -32.046875 29.601562 -41.789062 30.0625 -55.28125 C 30.25 -61.007812 30.476562 -67.84375 30.75 -75.78125 C 31.03125 -83.726562 31.332031 -92.96875 31.65625 -103.5 C 31.976562 -114.03125 32.367188 -125.988281 32.828125 -139.375 C 33.296875 -152.769531 33.804688 -167.78125 34.359375 -184.40625 C 30.941406 -184.21875 27.039062 -184.078125 22.65625 -183.984375 C 18.269531 -183.898438 13.347656 -183.945312 7.890625 -184.125 L 33.8125 -198.6875 C 36.945312 -198.40625 40.269531 -198.171875 43.78125 -197.984375 C 47.289062 -197.796875 50.753906 -197.703125 54.171875 -197.703125 C 57.585938 -197.703125 60.816406 -197.722656 63.859375 -197.765625 C 66.910156 -197.816406 69.59375 -197.9375 71.90625 -198.125 C 74.582031 -198.3125 77.078125 -198.5 79.390625 -198.6875 C 86.128906 -198.6875 92.984375 -198.128906 99.953125 -197.015625 C 106.929688 -195.910156 113.238281 -193.851562 118.875 -190.84375 C 124.507812 -187.84375 129.128906 -183.664062 132.734375 -178.3125 C 136.335938 -172.957031 138.140625 -166.03125 138.140625 -157.53125 C 137.671875 -151.0625 135.867188 -144.96875 132.734375 -139.25 C 131.347656 -136.75 129.640625 -134.226562 127.609375 -131.6875 C 125.578125 -129.144531 123.054688 -126.71875 120.046875 -124.40625 C 117.046875 -122.101562 113.515625 -119.984375 109.453125 -118.046875 C 105.390625 -116.109375 100.679688 -114.488281 95.328125 -113.1875 C 96.890625 -113.375 98.382812 -113.515625 99.8125 -113.609375 C 101.25 -113.703125 102.707031 -113.75 104.1875 -113.75 C 110.007812 -113.75 115.160156 -113.078125 119.640625 -111.734375 C 124.117188 -110.398438 127.992188 -108.625 131.265625 -106.40625 C 134.546875 -104.1875 137.316406 -101.664062 139.578125 -98.84375 C 141.847656 -96.03125 143.722656 -93.191406 145.203125 -90.328125 C 148.617188 -83.398438 150.554688 -75.597656 151.015625 -66.921875 Z M 53.625 -34.078125 C 53.25 -31.035156 52.554688 -28.128906 51.546875 -25.359375 C 50.710938 -22.953125 49.578125 -20.59375 48.140625 -18.28125 C 46.710938 -15.976562 44.84375 -14.316406 42.53125 -13.296875 C 51.769531 -12.460938 59.664062 -11.882812 66.21875 -11.5625 C 72.78125 -11.238281 78.140625 -11.078125 82.296875 -11.078125 C 84.421875 -11.078125 86.289062 -11.097656 87.90625 -11.140625 C 89.519531 -11.191406 90.835938 -11.265625 91.859375 -11.359375 C 93.054688 -11.453125 94.023438 -11.546875 94.765625 -11.640625 C 97.628906 -12.003906 100.675781 -13.25 103.90625 -15.375 C 107.144531 -17.5 110.195312 -20.335938 113.0625 -23.890625 C 115.925781 -27.453125 118.394531 -31.585938 120.46875 -36.296875 C 122.550781 -41.003906 123.914062 -46.222656 124.5625 -51.953125 C 125.382812 -59.617188 124.988281 -66.5 123.375 -72.59375 C 121.757812 -78.695312 118.921875 -83.867188 114.859375 -88.109375 C 110.796875 -92.359375 105.503906 -95.613281 98.984375 -97.875 C 92.472656 -100.144531 84.738281 -101.28125 75.78125 -101.28125 C 74.21875 -101.28125 72.554688 -101.234375 70.796875 -101.140625 C 69.046875 -101.046875 67.289062 -100.90625 65.53125 -100.71875 C 71.539062 -103.582031 77.269531 -106.304688 82.71875 -108.890625 C 88.164062 -111.484375 92.941406 -114.601562 97.046875 -118.25 C 101.160156 -121.894531 104.414062 -126.394531 106.8125 -131.75 C 109.21875 -137.113281 110.421875 -144 110.421875 -152.40625 C 110.421875 -157.207031 109.585938 -161.363281 107.921875 -164.875 C 106.265625 -168.382812 104.050781 -171.335938 101.28125 -173.734375 C 98.507812 -176.140625 95.34375 -178.082031 91.78125 -179.5625 C 88.226562 -181.039062 84.535156 -182.191406 80.703125 -183.015625 C 76.867188 -183.847656 73.054688 -184.40625 69.265625 -184.6875 C 65.484375 -184.96875 61.976562 -185.148438 58.75 -185.234375 C 58.375 -168.335938 58.023438 -153.238281 57.703125 -139.9375 C 57.378906 -126.632812 57.054688 -114.851562 56.734375 -104.59375 C 56.410156 -94.34375 56.132812 -85.5 55.90625 -78.0625 C 55.675781 -70.632812 55.421875 -64.285156 55.140625 -59.015625 C 54.585938 -46.734375 54.082031 -38.421875 53.625 -34.078125 Z M 53.625 -34.078125 "/></g></g></g></svg>